<?xml version="1.0" encoding="UTF-8"?>
<svg xmlns="http://www.w3.org/2000/svg" width="1992" height="600" viewBox="0 0 1992 600">
  <rect x="0" y="0" width="1992" height="600" fill="#ffffff"/>
  <defs>
      <filter id="glow-1" x="-60%" y="-60%" width="220%" height="220%">
        <feGaussianBlur in="SourceGraphic" stdDeviation="12" result="blur"/>
        <feFlood flood-color="#8c5bff" flood-opacity="0.75" result="flood"/>
        <feComposite in="flood" in2="blur" operator="in" result="colored"/>
        <feMerge><feMergeNode in="colored"/><feMergeNode in="SourceGraphic"/></feMerge>
      </filter>
  </defs>
  <text x="996" y="24" font-size="22" font-weight="600" text-anchor="middle" font-family="Inter, Arial, sans-serif">Glow configurable</text>
    <path d="M72.000 120.000L160.000 120.000L160.000 208.000L72.000 208.000Z" fill-rule="nonzero" fill="#4c4c4c" stroke="none" stroke-width="0" stroke-linejoin="round" stroke-linecap="round" opacity="0.8"/>
    <text x="116" y="230" font-size="12" fill="#555" text-anchor="middle" font-family="Inter, Arial, sans-serif">solid-square (pre)</text>
    <path d="M232.000 120.000L320.000 120.000L320.000 208.000L232.000 208.000Z" fill-rule="nonzero" fill="#0f0f0f" stroke="#0f0f0f" stroke-width="6" stroke-linejoin="round" stroke-linecap="round" filter="url(#glow-1)"/>
    <text x="276" y="230" font-size="12" fill="#555" text-anchor="middle" font-family="Inter, Arial, sans-serif">solid-square (post)</text>
    <path d="M392.000 120.000L480.000 120.000L480.000 208.000L392.000 208.000Z" fill-rule="nonzero" fill="none" stroke="#111111" stroke-width="8" stroke-linejoin="round" stroke-linecap="round" opacity="0.8"/>
    <text x="436" y="230" font-size="12" fill="#555" text-anchor="middle" font-family="Inter, Arial, sans-serif">outline-square (pre)</text>
    <path d="M552.000 120.000L640.000 120.000L640.000 208.000L552.000 208.000Z" fill-rule="nonzero" fill="#0f0f0f" stroke="#111111" stroke-width="8" stroke-linejoin="round" stroke-linecap="round" filter="url(#glow-1)"/>
    <text x="596" y="230" font-size="12" fill="#555" text-anchor="middle" font-family="Inter, Arial, sans-serif">outline-square (post)</text>
    <path d="M740.160 120.000L771.840 120.000C787.392 120.000 800.000 132.608 800.000 148.160L800.000 179.840C800.000 195.392 787.392 208.000 771.840 208.000L740.160 208.000C724.608 208.000 712.000 195.392 712.000 179.840L712.000 148.160C712.000 132.608 724.608 120.000 740.160 120.000Z" fill-rule="nonzero" fill="#4c4c4c" stroke="none" stroke-width="0" stroke-linejoin="round" stroke-linecap="round" opacity="0.8"/>
    <text x="756" y="230" font-size="12" fill="#555" text-anchor="middle" font-family="Inter, Arial, sans-serif">solid-rounded-square (pre)</text>
    <path d="M900.160 120.000L931.840 120.000C947.392 120.000 960.000 132.608 960.000 148.160L960.000 179.840C960.000 195.392 947.392 208.000 931.840 208.000L900.160 208.000C884.608 208.000 872.000 195.392 872.000 179.840L872.000 148.160C872.000 132.608 884.608 120.000 900.160 120.000Z" fill-rule="nonzero" fill="#0f0f0f" stroke="#0f0f0f" stroke-width="6" stroke-linejoin="round" stroke-linecap="round" filter="url(#glow-1)"/>
    <text x="916" y="230" font-size="12" fill="#555" text-anchor="middle" font-family="Inter, Arial, sans-serif">solid-rounded-square (post)</text>
    <path d="M1060.160 120.000L1091.840 120.000C1107.392 120.000 1120.000 132.608 1120.000 148.160L1120.000 179.840C1120.000 195.392 1107.392 208.000 1091.840 208.000L1060.160 208.000C1044.608 208.000 1032.000 195.392 1032.000 179.840L1032.000 148.160C1032.000 132.608 1044.608 120.000 1060.160 120.000Z" fill-rule="nonzero" fill="none" stroke="#111111" stroke-width="8" stroke-linejoin="round" stroke-linecap="round" opacity="0.8"/>
    <text x="1076" y="230" font-size="12" fill="#555" text-anchor="middle" font-family="Inter, Arial, sans-serif">outline-rounded-square (pre)</text>
    <path d="M1220.160 120.000L1251.840 120.000C1267.392 120.000 1280.000 132.608 1280.000 148.160L1280.000 179.840C1280.000 195.392 1267.392 208.000 1251.840 208.000L1220.160 208.000C1204.608 208.000 1192.000 195.392 1192.000 179.840L1192.000 148.160C1192.000 132.608 1204.608 120.000 1220.160 120.000Z" fill-rule="nonzero" fill="#0f0f0f" stroke="#111111" stroke-width="8" stroke-linejoin="round" stroke-linecap="round" filter="url(#glow-1)"/>
    <text x="1236" y="230" font-size="12" fill="#555" text-anchor="middle" font-family="Inter, Arial, sans-serif">outline-rounded-square (post)</text>
    <path d="M1440.000 164.000C1440.000 188.301 1420.301 208.000 1396.000 208.000C1371.699 208.000 1352.000 188.301 1352.000 164.000C1352.000 139.699 1371.699 120.000 1396.000 120.000C1420.301 120.000 1440.000 139.699 1440.000 164.000Z" fill-rule="nonzero" fill="#4c4c4c" stroke="none" stroke-width="0" stroke-linejoin="round" stroke-linecap="round" opacity="0.8"/>
    <text x="1396" y="230" font-size="12" fill="#555" text-anchor="middle" font-family="Inter, Arial, sans-serif">solid-circle (pre)</text>
    <path d="M1600.000 164.000C1600.000 188.301 1580.301 208.000 1556.000 208.000C1531.699 208.000 1512.000 188.301 1512.000 164.000C1512.000 139.699 1531.699 120.000 1556.000 120.000C1580.301 120.000 1600.000 139.699 1600.000 164.000Z" fill-rule="nonzero" fill="#0f0f0f" stroke="#0f0f0f" stroke-width="6" stroke-linejoin="round" stroke-linecap="round" filter="url(#glow-1)"/>
    <text x="1556" y="230" font-size="12" fill="#555" text-anchor="middle" font-family="Inter, Arial, sans-serif">solid-circle (post)</text>
    <path d="M1760.000 164.000C1760.000 188.301 1740.301 208.000 1716.000 208.000C1691.699 208.000 1672.000 188.301 1672.000 164.000C1672.000 139.699 1691.699 120.000 1716.000 120.000C1740.301 120.000 1760.000 139.699 1760.000 164.000ZM1744.160 164.000C1731.552 192.160 1744.160 179.552 1744.160 164.000C1687.840 179.552 1700.448 192.160 1716.000 192.160C1700.448 135.840 1687.840 148.448 1687.840 164.000C1744.160 148.448 1731.552 135.840 1716.000 135.840Z" fill-rule="evenodd" fill="#4c4c4c" stroke="none" stroke-width="0" stroke-linejoin="round" stroke-linecap="round" opacity="0.8"/>
    <text x="1716" y="230" font-size="12" fill="#555" text-anchor="middle" font-family="Inter, Arial, sans-serif">ring (pre)</text>
    <path d="M1920.000 164.000C1920.000 188.301 1900.301 208.000 1876.000 208.000C1851.699 208.000 1832.000 188.301 1832.000 164.000C1832.000 139.699 1851.699 120.000 1876.000 120.000C1900.301 120.000 1920.000 139.699 1920.000 164.000ZM1904.160 164.000C1891.552 192.160 1904.160 179.552 1904.160 164.000C1847.840 179.552 1860.448 192.160 1876.000 192.160C1860.448 135.840 1847.840 148.448 1847.840 164.000C1904.160 148.448 1891.552 135.840 1876.000 135.840Z" fill-rule="evenodd" fill="#0f0f0f" stroke="#0f0f0f" stroke-width="6" stroke-linejoin="round" stroke-linecap="round" filter="url(#glow-1)"/>
    <text x="1876" y="230" font-size="12" fill="#555" text-anchor="middle" font-family="Inter, Arial, sans-serif">ring (post)</text>
    <path d="M116.000 280.000L160.000 368.000L72.000 368.000Z" fill-rule="nonzero" fill="#4c4c4c" stroke="none" stroke-width="0" stroke-linejoin="round" stroke-linecap="round" opacity="0.8"/>
    <text x="116" y="390" font-size="12" fill="#555" text-anchor="middle" font-family="Inter, Arial, sans-serif">solid-triangle-up (pre)</text>
    <path d="M276.000 280.000L320.000 368.000L232.000 368.000Z" fill-rule="nonzero" fill="#0f0f0f" stroke="#0f0f0f" stroke-width="6" stroke-linejoin="round" stroke-linecap="round" filter="url(#glow-1)"/>
    <text x="276" y="390" font-size="12" fill="#555" text-anchor="middle" font-family="Inter, Arial, sans-serif">solid-triangle-up (post)</text>
    <path d="M436.000 280.000L480.000 368.000L392.000 368.000Z" fill-rule="nonzero" fill="none" stroke="#111111" stroke-width="8" stroke-linejoin="round" stroke-linecap="round" opacity="0.8"/>
    <text x="436" y="390" font-size="12" fill="#555" text-anchor="middle" font-family="Inter, Arial, sans-serif">outline-triangle-up (pre)</text>
    <path d="M596.000 280.000L640.000 368.000L552.000 368.000Z" fill-rule="nonzero" fill="#0f0f0f" stroke="#111111" stroke-width="8" stroke-linejoin="round" stroke-linecap="round" filter="url(#glow-1)"/>
    <text x="596" y="390" font-size="12" fill="#555" text-anchor="middle" font-family="Inter, Arial, sans-serif">outline-triangle-up (post)</text>
    <path d="M756.000 280.000L795.600 324.000L756.000 368.000L716.400 324.000Z" fill-rule="nonzero" fill="#4c4c4c" stroke="none" stroke-width="0" stroke-linejoin="round" stroke-linecap="round" opacity="0.8"/>
    <text x="756" y="390" font-size="12" fill="#555" text-anchor="middle" font-family="Inter, Arial, sans-serif">solid-diamond (pre)</text>
    <path d="M916.000 280.000L955.600 324.000L916.000 368.000L876.400 324.000Z" fill-rule="nonzero" fill="#0f0f0f" stroke="#0f0f0f" stroke-width="6" stroke-linejoin="round" stroke-linecap="round" filter="url(#glow-1)"/>
    <text x="916" y="390" font-size="12" fill="#555" text-anchor="middle" font-family="Inter, Arial, sans-serif">solid-diamond (post)</text>
    <path d="M1076.000 280.000L1115.600 324.000L1076.000 368.000L1036.400 324.000Z" fill-rule="nonzero" fill="none" stroke="#111111" stroke-width="8" stroke-linejoin="round" stroke-linecap="round" opacity="0.8"/>
    <text x="1076" y="390" font-size="12" fill="#555" text-anchor="middle" font-family="Inter, Arial, sans-serif">outline-diamond (pre)</text>
    <path d="M1236.000 280.000L1275.600 324.000L1236.000 368.000L1196.400 324.000Z" fill-rule="nonzero" fill="#0f0f0f" stroke="#111111" stroke-width="8" stroke-linejoin="round" stroke-linecap="round" filter="url(#glow-1)"/>
    <text x="1236" y="390" font-size="12" fill="#555" text-anchor="middle" font-family="Inter, Arial, sans-serif">outline-diamond (post)</text>
    <path d="M1396.000 280.000C1415.360 284.400 1429.440 302.000 1438.240 324.000C1429.440 346.000 1415.360 363.600 1396.000 368.000C1376.640 363.600 1362.560 346.000 1353.760 324.000C1362.560 302.000 1376.640 284.400 1396.000 280.000Z" fill-rule="nonzero" fill="#4c4c4c" stroke="none" stroke-width="0" stroke-linejoin="round" stroke-linecap="round" opacity="0.8"/>
    <text x="1396" y="390" font-size="12" fill="#555" text-anchor="middle" font-family="Inter, Arial, sans-serif">solid-sparkle (pre)</text>
    <path d="M1556.000 280.000C1575.360 284.400 1589.440 302.000 1598.240 324.000C1589.440 346.000 1575.360 363.600 1556.000 368.000C1536.640 363.600 1522.560 346.000 1513.760 324.000C1522.560 302.000 1536.640 284.400 1556.000 280.000Z" fill-rule="nonzero" fill="#0f0f0f" stroke="#0f0f0f" stroke-width="6" stroke-linejoin="round" stroke-linecap="round" filter="url(#glow-1)"/>
    <text x="1556" y="390" font-size="12" fill="#555" text-anchor="middle" font-family="Inter, Arial, sans-serif">solid-sparkle (post)</text>
    <path d="M1716.000 280.000C1735.360 284.400 1749.440 302.000 1758.240 324.000C1749.440 346.000 1735.360 363.600 1716.000 368.000C1696.640 363.600 1682.560 346.000 1673.760 324.000C1682.560 302.000 1696.640 284.400 1716.000 280.000Z" fill-rule="nonzero" fill="none" stroke="#111111" stroke-width="8" stroke-linejoin="round" stroke-linecap="round" opacity="0.8"/>
    <text x="1716" y="390" font-size="12" fill="#555" text-anchor="middle" font-family="Inter, Arial, sans-serif">outline-sparkle (pre)</text>
    <path d="M1876.000 280.000C1895.360 284.400 1909.440 302.000 1918.240 324.000C1909.440 346.000 1895.360 363.600 1876.000 368.000C1856.640 363.600 1842.560 346.000 1833.760 324.000C1842.560 302.000 1856.640 284.400 1876.000 280.000Z" fill-rule="nonzero" fill="#0f0f0f" stroke="#111111" stroke-width="8" stroke-linejoin="round" stroke-linecap="round" filter="url(#glow-1)"/>
    <text x="1876" y="390" font-size="12" fill="#555" text-anchor="middle" font-family="Inter, Arial, sans-serif">outline-sparkle (post)</text>
    <path d="M107.200 440.000L124.800 440.000L124.800 528.000L107.200 528.000ZM149.705 454.379L158.505 469.621L82.295 513.621L73.495 498.379ZM158.505 498.379L149.705 513.621L73.495 469.621L82.295 454.379Z" fill-rule="nonzero" fill="#4c4c4c" stroke="none" stroke-width="0" stroke-linejoin="round" stroke-linecap="round" opacity="0.8"/>
    <text x="116" y="550" font-size="12" fill="#555" text-anchor="middle" font-family="Inter, Arial, sans-serif">solid-asterisk (pre)</text>
    <path d="M267.200 440.000L284.800 440.000L284.800 528.000L267.200 528.000ZM309.705 454.379L318.505 469.621L242.295 513.621L233.495 498.379ZM318.505 498.379L309.705 513.621L233.495 469.621L242.295 454.379Z" fill-rule="nonzero" fill="#0f0f0f" stroke="#0f0f0f" stroke-width="6" stroke-linejoin="round" stroke-linecap="round" filter="url(#glow-1)"/>
    <text x="276" y="550" font-size="12" fill="#555" text-anchor="middle" font-family="Inter, Arial, sans-serif">solid-asterisk (post)</text>
    <path d="M427.200 440.000L444.800 440.000L444.800 528.000L427.200 528.000ZM469.705 454.379L478.505 469.621L402.295 513.621L393.495 498.379ZM478.505 498.379L469.705 513.621L393.495 469.621L402.295 454.379Z" fill-rule="nonzero" fill="none" stroke="#111111" stroke-width="8" stroke-linejoin="round" stroke-linecap="round" opacity="0.8"/>
    <text x="436" y="550" font-size="12" fill="#555" text-anchor="middle" font-family="Inter, Arial, sans-serif">outline-asterisk (pre)</text>
    <path d="M587.200 440.000L604.800 440.000L604.800 528.000L587.200 528.000ZM629.705 454.379L638.505 469.621L562.295 513.621L553.495 498.379ZM638.505 498.379L629.705 513.621L553.495 469.621L562.295 454.379Z" fill-rule="nonzero" fill="#0f0f0f" stroke="#111111" stroke-width="8" stroke-linejoin="round" stroke-linecap="round" filter="url(#glow-1)"/>
    <text x="596" y="550" font-size="12" fill="#555" text-anchor="middle" font-family="Inter, Arial, sans-serif">outline-asterisk (post)</text>
    <path d="M745.651 494.349C751.366 508.813 767.725 515.905 782.189 510.189C777.942 520.938 767.558 528.000 756.000 528.000C744.442 528.000 734.058 520.938 729.811 510.189C744.275 515.905 760.634 508.813 766.349 494.349C759.700 496.977 752.300 496.977 745.651 494.349Z" fill-rule="nonzero" fill="#4c4c4c" stroke="none" stroke-width="0" stroke-linejoin="round" stroke-linecap="round" opacity="0.8"/>
    <text x="756" y="550" font-size="12" fill="#555" text-anchor="middle" font-family="Inter, Arial, sans-serif">solid-clover (pre)</text>
    <path d="M905.651 494.349C911.366 508.813 927.725 515.905 942.189 510.189C937.942 520.938 927.558 528.000 916.000 528.000C904.442 528.000 894.058 520.938 889.811 510.189C904.275 515.905 920.634 508.813 926.349 494.349C919.700 496.977 912.300 496.977 905.651 494.349Z" fill-rule="nonzero" fill="#0f0f0f" stroke="#0f0f0f" stroke-width="6" stroke-linejoin="round" stroke-linecap="round" filter="url(#glow-1)"/>
    <text x="916" y="550" font-size="12" fill="#555" text-anchor="middle" font-family="Inter, Arial, sans-serif">solid-clover (post)</text>
    <path d="M1065.651 494.349C1071.366 508.813 1087.725 515.905 1102.189 510.189C1097.942 520.938 1087.558 528.000 1076.000 528.000C1064.442 528.000 1054.058 520.938 1049.811 510.189C1064.275 515.905 1080.634 508.813 1086.349 494.349C1079.700 496.977 1072.300 496.977 1065.651 494.349Z" fill-rule="nonzero" fill="none" stroke="#111111" stroke-width="8" stroke-linejoin="round" stroke-linecap="round" opacity="0.8"/>
    <text x="1076" y="550" font-size="12" fill="#555" text-anchor="middle" font-family="Inter, Arial, sans-serif">outline-clover (pre)</text>
    <path d="M1225.651 494.349C1231.366 508.813 1247.725 515.905 1262.189 510.189C1257.942 520.938 1247.558 528.000 1236.000 528.000C1224.442 528.000 1214.058 520.938 1209.811 510.189C1224.275 515.905 1240.634 508.813 1246.349 494.349C1239.700 496.977 1232.300 496.977 1225.651 494.349Z" fill-rule="nonzero" fill="#0f0f0f" stroke="#111111" stroke-width="8" stroke-linejoin="round" stroke-linecap="round" filter="url(#glow-1)"/>
    <text x="1236" y="550" font-size="12" fill="#555" text-anchor="middle" font-family="Inter, Arial, sans-serif">outline-clover (post)</text>
    <path d="M1440.000 484.000L1439.841 488.733L1439.371 493.353L1438.606 497.754L1437.572 501.843L1436.302 505.544L1434.833 508.800L1433.205 511.575L1431.458 513.852L1429.628 515.631L1427.749 516.926L1425.851 517.762L1423.956 518.169L1422.085 518.185L1420.252 517.848L1418.469 517.196L1416.742 516.267L1415.076 515.095L1413.473 513.714L1411.932 512.153L1410.453 510.438L1409.033 508.592L1407.667 506.637L1406.352 504.589L1405.084 502.464L1403.857 500.276L1402.667 498.036L1401.508 495.755L1400.375 493.441L1399.263 491.101L1398.167 488.744L1397.081 486.375L1396.000 484.000L1394.919 481.625L1393.833 479.256L1392.737 476.899L1391.625 474.559L1390.492 472.245L1389.333 469.964L1388.143 467.724L1386.916 465.536L1385.648 463.411L1384.333 461.363L1382.967 459.408L1381.547 457.562L1380.068 455.847L1378.527 454.286L1376.924 452.905L1375.258 451.733L1373.531 450.804L1371.748 450.152L1369.915 449.815L1368.044 449.831L1366.149 450.238L1364.251 451.074L1362.372 452.369L1360.542 454.148L1358.795 456.425L1357.167 459.200L1355.698 462.456L1354.428 466.157L1353.394 470.246L1352.629 474.647L1352.159 479.267L1352.000 484.000L1352.159 488.733L1352.629 493.353L1353.394 497.754L1354.428 501.843L1355.698 505.544L1357.167 508.800L1358.795 511.575L1360.542 513.852L1362.372 515.631L1364.251 516.926L1366.149 517.762L1368.044 518.169L1369.915 518.185L1371.748 517.848L1373.531 517.196L1375.258 516.267L1376.924 515.095L1378.527 513.714L1380.068 512.153L1381.547 510.438L1382.967 508.592L1384.333 506.637L1385.648 504.589L1386.916 502.464L1388.143 500.276L1389.333 498.036L1390.492 495.755L1391.625 493.441L1392.737 491.101L1393.833 488.744L1394.919 486.375L1396.000 484.000L1397.081 481.625L1398.167 479.256L1399.263 476.899L1400.375 474.559L1401.508 472.245L1402.667 469.964L1403.857 467.724L1405.084 465.536L1406.352 463.411L1407.667 461.363L1409.033 459.408L1410.453 457.562L1411.932 455.847L1413.473 454.286L1415.076 452.905L1416.742 451.733L1418.469 450.804L1420.252 450.152L1422.085 449.815L1423.956 449.831L1425.851 450.238L1427.749 451.074L1429.628 452.369L1431.458 454.148L1433.205 456.425L1434.833 459.200L1436.302 462.456L1437.572 466.157L1438.606 470.246L1439.371 474.647L1439.841 479.267L1440.000 484.000Z" fill-rule="nonzero" fill="#4c4c4c" stroke="none" stroke-width="0" stroke-linejoin="round" stroke-linecap="round" opacity="0.8"/>
    <text x="1396" y="550" font-size="12" fill="#555" text-anchor="middle" font-family="Inter, Arial, sans-serif">solid-lemniscate (pre)</text>
    <path d="M1600.000 484.000L1599.841 488.733L1599.371 493.353L1598.606 497.754L1597.572 501.843L1596.302 505.544L1594.833 508.800L1593.205 511.575L1591.458 513.852L1589.628 515.631L1587.749 516.926L1585.851 517.762L1583.956 518.169L1582.085 518.185L1580.252 517.848L1578.469 517.196L1576.742 516.267L1575.076 515.095L1573.473 513.714L1571.932 512.153L1570.453 510.438L1569.033 508.592L1567.667 506.637L1566.352 504.589L1565.084 502.464L1563.857 500.276L1562.667 498.036L1561.508 495.755L1560.375 493.441L1559.263 491.101L1558.167 488.744L1557.081 486.375L1556.000 484.000L1554.919 481.625L1553.833 479.256L1552.737 476.899L1551.625 474.559L1550.492 472.245L1549.333 469.964L1548.143 467.724L1546.916 465.536L1545.648 463.411L1544.333 461.363L1542.967 459.408L1541.547 457.562L1540.068 455.847L1538.527 454.286L1536.924 452.905L1535.258 451.733L1533.531 450.804L1531.748 450.152L1529.915 449.815L1528.044 449.831L1526.149 450.238L1524.251 451.074L1522.372 452.369L1520.542 454.148L1518.795 456.425L1517.167 459.200L1515.698 462.456L1514.428 466.157L1513.394 470.246L1512.629 474.647L1512.159 479.267L1512.000 484.000L1512.159 488.733L1512.629 493.353L1513.394 497.754L1514.428 501.843L1515.698 505.544L1517.167 508.800L1518.795 511.575L1520.542 513.852L1522.372 515.631L1524.251 516.926L1526.149 517.762L1528.044 518.169L1529.915 518.185L1531.748 517.848L1533.531 517.196L1535.258 516.267L1536.924 515.095L1538.527 513.714L1540.068 512.153L1541.547 510.438L1542.967 508.592L1544.333 506.637L1545.648 504.589L1546.916 502.464L1548.143 500.276L1549.333 498.036L1550.492 495.755L1551.625 493.441L1552.737 491.101L1553.833 488.744L1554.919 486.375L1556.000 484.000L1557.081 481.625L1558.167 479.256L1559.263 476.899L1560.375 474.559L1561.508 472.245L1562.667 469.964L1563.857 467.724L1565.084 465.536L1566.352 463.411L1567.667 461.363L1569.033 459.408L1570.453 457.562L1571.932 455.847L1573.473 454.286L1575.076 452.905L1576.742 451.733L1578.469 450.804L1580.252 450.152L1582.085 449.815L1583.956 449.831L1585.851 450.238L1587.749 451.074L1589.628 452.369L1591.458 454.148L1593.205 456.425L1594.833 459.200L1596.302 462.456L1597.572 466.157L1598.606 470.246L1599.371 474.647L1599.841 479.267L1600.000 484.000Z" fill-rule="nonzero" fill="#0f0f0f" stroke="#0f0f0f" stroke-width="6" stroke-linejoin="round" stroke-linecap="round" filter="url(#glow-1)"/>
    <text x="1556" y="550" font-size="12" fill="#555" text-anchor="middle" font-family="Inter, Arial, sans-serif">solid-lemniscate (post)</text>
    <path d="M1760.000 484.000L1759.841 488.733L1759.371 493.353L1758.606 497.754L1757.572 501.843L1756.302 505.544L1754.833 508.800L1753.205 511.575L1751.458 513.852L1749.628 515.631L1747.749 516.926L1745.851 517.762L1743.956 518.169L1742.085 518.185L1740.252 517.848L1738.469 517.196L1736.742 516.267L1735.076 515.095L1733.473 513.714L1731.932 512.153L1730.453 510.438L1729.033 508.592L1727.667 506.637L1726.352 504.589L1725.084 502.464L1723.857 500.276L1722.667 498.036L1721.508 495.755L1720.375 493.441L1719.263 491.101L1718.167 488.744L1717.081 486.375L1716.000 484.000L1714.919 481.625L1713.833 479.256L1712.737 476.899L1711.625 474.559L1710.492 472.245L1709.333 469.964L1708.143 467.724L1706.916 465.536L1705.648 463.411L1704.333 461.363L1702.967 459.408L1701.547 457.562L1700.068 455.847L1698.527 454.286L1696.924 452.905L1695.258 451.733L1693.531 450.804L1691.748 450.152L1689.915 449.815L1688.044 449.831L1686.149 450.238L1684.251 451.074L1682.372 452.369L1680.542 454.148L1678.795 456.425L1677.167 459.200L1675.698 462.456L1674.428 466.157L1673.394 470.246L1672.629 474.647L1672.159 479.267L1672.000 484.000L1672.159 488.733L1672.629 493.353L1673.394 497.754L1674.428 501.843L1675.698 505.544L1677.167 508.800L1678.795 511.575L1680.542 513.852L1682.372 515.631L1684.251 516.926L1686.149 517.762L1688.044 518.169L1689.915 518.185L1691.748 517.848L1693.531 517.196L1695.258 516.267L1696.924 515.095L1698.527 513.714L1700.068 512.153L1701.547 510.438L1702.967 508.592L1704.333 506.637L1705.648 504.589L1706.916 502.464L1708.143 500.276L1709.333 498.036L1710.492 495.755L1711.625 493.441L1712.737 491.101L1713.833 488.744L1714.919 486.375L1716.000 484.000L1717.081 481.625L1718.167 479.256L1719.263 476.899L1720.375 474.559L1721.508 472.245L1722.667 469.964L1723.857 467.724L1725.084 465.536L1726.352 463.411L1727.667 461.363L1729.033 459.408L1730.453 457.562L1731.932 455.847L1733.473 454.286L1735.076 452.905L1736.742 451.733L1738.469 450.804L1740.252 450.152L1742.085 449.815L1743.956 449.831L1745.851 450.238L1747.749 451.074L1749.628 452.369L1751.458 454.148L1753.205 456.425L1754.833 459.200L1756.302 462.456L1757.572 466.157L1758.606 470.246L1759.371 474.647L1759.841 479.267L1760.000 484.000Z" fill-rule="nonzero" fill="none" stroke="#111111" stroke-width="8" stroke-linejoin="round" stroke-linecap="round" opacity="0.8"/>
    <text x="1716" y="550" font-size="12" fill="#555" text-anchor="middle" font-family="Inter, Arial, sans-serif">outline-lemniscate (pre)</text>
    <path d="M1920.000 484.000L1919.841 488.733L1919.371 493.353L1918.606 497.754L1917.572 501.843L1916.302 505.544L1914.833 508.800L1913.205 511.575L1911.458 513.852L1909.628 515.631L1907.749 516.926L1905.851 517.762L1903.956 518.169L1902.085 518.185L1900.252 517.848L1898.469 517.196L1896.742 516.267L1895.076 515.095L1893.473 513.714L1891.932 512.153L1890.453 510.438L1889.033 508.592L1887.667 506.637L1886.352 504.589L1885.084 502.464L1883.857 500.276L1882.667 498.036L1881.508 495.755L1880.375 493.441L1879.263 491.101L1878.167 488.744L1877.081 486.375L1876.000 484.000L1874.919 481.625L1873.833 479.256L1872.737 476.899L1871.625 474.559L1870.492 472.245L1869.333 469.964L1868.143 467.724L1866.916 465.536L1865.648 463.411L1864.333 461.363L1862.967 459.408L1861.547 457.562L1860.068 455.847L1858.527 454.286L1856.924 452.905L1855.258 451.733L1853.531 450.804L1851.748 450.152L1849.915 449.815L1848.044 449.831L1846.149 450.238L1844.251 451.074L1842.372 452.369L1840.542 454.148L1838.795 456.425L1837.167 459.200L1835.698 462.456L1834.428 466.157L1833.394 470.246L1832.629 474.647L1832.159 479.267L1832.000 484.000L1832.159 488.733L1832.629 493.353L1833.394 497.754L1834.428 501.843L1835.698 505.544L1837.167 508.800L1838.795 511.575L1840.542 513.852L1842.372 515.631L1844.251 516.926L1846.149 517.762L1848.044 518.169L1849.915 518.185L1851.748 517.848L1853.531 517.196L1855.258 516.267L1856.924 515.095L1858.527 513.714L1860.068 512.153L1861.547 510.438L1862.967 508.592L1864.333 506.637L1865.648 504.589L1866.916 502.464L1868.143 500.276L1869.333 498.036L1870.492 495.755L1871.625 493.441L1872.737 491.101L1873.833 488.744L1874.919 486.375L1876.000 484.000L1877.081 481.625L1878.167 479.256L1879.263 476.899L1880.375 474.559L1881.508 472.245L1882.667 469.964L1883.857 467.724L1885.084 465.536L1886.352 463.411L1887.667 461.363L1889.033 459.408L1890.453 457.562L1891.932 455.847L1893.473 454.286L1895.076 452.905L1896.742 451.733L1898.469 450.804L1900.252 450.152L1902.085 449.815L1903.956 449.831L1905.851 450.238L1907.749 451.074L1909.628 452.369L1911.458 454.148L1913.205 456.425L1914.833 459.200L1916.302 462.456L1917.572 466.157L1918.606 470.246L1919.371 474.647L1919.841 479.267L1920.000 484.000Z" fill-rule="nonzero" fill="#0f0f0f" stroke="#111111" stroke-width="8" stroke-linejoin="round" stroke-linecap="round" filter="url(#glow-1)"/>
    <text x="1876" y="550" font-size="12" fill="#555" text-anchor="middle" font-family="Inter, Arial, sans-serif">outline-lemniscate (post)</text>
</svg>
